<?xml version="1.0" standalone="no"?>
<!DOCTYPE svg PUBLIC "-//W3C//DTD SVG 20010904//EN"
 "http://www.w3.org/TR/2001/REC-SVG-20010904/DTD/svg10.dtd">
<svg version="1.0" xmlns="http://www.w3.org/2000/svg"
 width="900.000000pt" height="867.000000pt" viewBox="0 0 900.000000 867.000000"
 preserveAspectRatio="xMidYMid meet">
<metadata>
Created by potrace 1.10, written by Peter Selinger 2001-2011
</metadata>
<g transform="translate(0.000000,867.000000) scale(0.100000,-0.100000)"
fill="#000000" stroke="none">
<path d="M2930 8570 c-165 -21 -343 -110 -447 -224 -50 -55 -51 -57 -58 -133
-3 -43 -12 -118 -20 -168 -34 -211 -56 -430 -47 -465 4 -16 42 -43 112 -79 54
-27 101 -55 185 -108 11 -7 43 -25 70 -39 28 -15 77 -44 111 -65 34 -22 64
-39 67 -39 3 0 23 -12 44 -26 21 -14 47 -30 58 -35 11 -5 38 -20 60 -34 33
-20 54 -24 113 -25 74 0 116 14 183 61 25 17 79 112 79 138 0 6 7 23 16 37 12
17 14 31 8 44 -5 10 -63 74 -129 142 -140 144 -215 230 -215 248 0 9 13 11 48
7 26 -4 106 -9 177 -12 72 -3 170 -11 219 -17 66 -7 119 -7 205 2 245 27 372
45 369 55 -3 10 -23 18 -223 90 -49 18 -110 40 -135 49 -25 10 -60 22 -78 29
-39 13 -82 60 -82 88 0 11 -14 55 -31 97 -17 42 -38 95 -47 117 -35 89 -136
192 -203 208 -13 3 -55 17 -94 30 -80 29 -213 40 -315 27z"/>
<path d="M2231 7172 c-5 -9 -12 -35 -16 -57 -4 -22 -13 -67 -22 -100 -29 -121
-44 -181 -58 -230 -8 -27 -26 -99 -40 -160 -15 -60 -31 -126 -35 -145 -5 -19
-14 -55 -20 -80 -7 -25 -19 -72 -27 -105 -16 -62 -28 -101 -58 -193 l-17 -52
60 -123 c85 -174 138 -286 229 -487 46 -100 104 -223 198 -415 51 -104 106
-219 123 -255 43 -93 50 -97 167 -103 55 -3 152 -10 215 -15 301 -27 972 -72
983 -65 10 6 4 11 -108 108 -44 38 -91 80 -105 93 -14 13 -49 45 -79 71 -102
87 -162 141 -491 442 -69 63 -145 132 -170 153 -25 22 -103 94 -175 162 -138
130 -143 134 -254 232 -96 85 -94 109 5 56 27 -15 202 -104 389 -199 187 -94
349 -177 360 -183 11 -6 74 -38 140 -70 66 -32 214 -107 329 -166 244 -126
200 -122 481 -47 105 28 215 58 245 65 105 27 185 47 220 55 19 4 51 13 70 19
19 6 64 18 100 27 36 9 90 23 120 31 30 7 98 23 150 35 52 11 105 25 118 30
38 15 51 11 129 -36 40 -25 76 -45 79 -45 2 0 23 -12 47 -27 61 -39 117 -71
156 -89 32 -15 35 -14 58 8 13 12 50 54 81 92 31 38 78 93 105 123 26 29 47
57 47 61 0 4 -16 30 -35 59 -19 28 -44 69 -56 90 -85 155 -92 163 -126 163
-18 0 -50 -6 -70 -14 -21 -7 -63 -21 -93 -30 -30 -9 -93 -28 -140 -43 -68 -23
-102 -28 -170 -27 -163 3 -626 25 -740 35 -63 6 -215 14 -338 19 -159 6 -228
12 -239 22 -14 11 -88 106 -148 188 -11 15 -56 72 -100 126 -44 55 -88 110
-98 124 -18 26 -116 151 -227 290 -88 110 -113 143 -198 255 -40 53 -78 98
-85 100 -43 13 -225 67 -292 85 -44 13 -114 33 -155 46 -41 14 -100 31 -130
40 -30 9 -96 29 -145 45 -105 34 -131 36 -144 11z"/>
<path d="M3465 6851 c-3 -6 0 -13 8 -18 10 -7 283 -289 527 -547 36 -38 92
-97 125 -131 l60 -62 80 -7 c44 -3 136 -13 205 -21 69 -8 190 -22 270 -30 80
-9 196 -22 259 -31 63 -8 168 -18 233 -21 113 -6 120 -5 117 12 -2 10 -15 22
-29 25 -14 4 -63 26 -109 49 -46 22 -87 41 -92 41 -4 0 -51 20 -103 45 -53 25
-98 45 -100 45 -5 0 -152 68 -262 121 -33 16 -63 29 -67 29 -4 0 -63 27 -131
60 -69 33 -127 60 -131 60 -3 0 -60 26 -128 59 -67 32 -147 69 -177 81 -30 12
-102 45 -160 72 -58 27 -125 59 -150 70 -25 11 -84 40 -132 64 -93 46 -103 50
-113 35z"/>
<path d="M8665 6453 c-33 -8 -105 -26 -160 -40 -123 -31 -213 -51 -283 -63
-29 -5 -68 -13 -85 -19 -58 -17 -141 -38 -222 -56 -44 -9 -105 -23 -135 -30
-30 -8 -85 -21 -122 -30 -153 -35 -199 -45 -320 -74 -70 -17 -136 -31 -147
-31 -11 0 -38 -6 -58 -14 -21 -7 -74 -21 -118 -31 -44 -10 -102 -24 -129 -31
-27 -8 -65 -14 -83 -14 -19 0 -43 -5 -54 -10 -10 -6 -38 -14 -61 -19 -24 -5
-88 -20 -143 -34 -55 -14 -134 -32 -175 -41 -283 -63 -340 -77 -340 -87 0 -5
15 -37 34 -71 24 -46 40 -64 57 -67 23 -3 146 12 357 45 51 8 112 14 135 14
45 0 223 21 372 45 50 7 151 21 225 30 74 9 185 22 245 30 61 8 166 22 235 30
69 9 168 22 220 31 52 8 111 14 130 14 19 0 73 6 120 14 159 27 247 39 565 76
172 20 209 42 226 135 19 102 -27 258 -86 295 -38 24 -109 25 -200 3z"/>
<path d="M2506 4362 c-16 -3 -18 -11 -12 -55 13 -114 27 -328 28 -422 0 -125
-23 -477 -57 -870 -9 -93 -17 -192 -19 -220 -11 -153 -28 -361 -35 -435 -9
-82 -10 -85 -49 -120 -22 -19 -76 -61 -119 -93 -43 -32 -130 -98 -193 -148
-63 -49 -158 -123 -210 -164 -52 -41 -147 -115 -210 -165 -63 -50 -160 -125
-215 -167 -55 -42 -117 -90 -137 -107 -56 -47 -134 -109 -223 -178 -181 -141
-265 -210 -265 -219 0 -12 49 -57 71 -64 9 -3 58 13 110 35 51 22 96 40 101
40 4 0 51 20 104 45 52 25 99 45 104 45 5 0 44 16 87 36 43 20 87 39 98 44 80
32 279 116 320 135 28 12 70 30 95 40 25 9 73 30 107 46 35 16 67 29 72 29 5
0 52 20 103 44 51 24 118 54 148 66 55 22 99 42 196 86 27 12 90 40 140 62 49
21 107 47 129 57 22 10 54 23 70 30 17 7 52 23 79 36 51 25 58 37 111 179 7
19 26 69 43 110 16 41 44 113 61 160 18 47 39 97 47 112 8 14 14 33 14 41 0 8
14 48 31 88 17 41 37 90 44 109 7 19 29 78 50 130 21 52 42 109 48 125 21 63
40 111 53 137 8 14 14 34 14 45 0 10 7 27 15 37 8 11 15 28 15 37 0 9 14 44
30 77 17 34 30 68 30 76 0 8 6 30 14 48 55 128 76 182 76 192 0 6 20 61 45
121 25 61 45 115 45 120 0 6 19 57 44 115 24 58 58 143 75 190 18 47 39 101
46 120 55 142 66 173 60 178 -7 7 -1395 10 -1429 4z"/>
<path d="M4164 4133 c-4 -15 -28 -93 -55 -173 -53 -158 -50 -151 -110 -325
-22 -66 -45 -136 -49 -155 -5 -19 -19 -60 -31 -90 -11 -30 -24 -70 -29 -89 -5
-18 -13 -38 -19 -44 -6 -6 -11 -21 -11 -33 0 -12 -18 -73 -41 -135 -22 -63
-42 -123 -45 -134 -3 -11 -13 -44 -22 -74 l-17 -54 60 -55 c33 -30 78 -69 101
-86 23 -17 94 -76 159 -131 64 -55 150 -127 190 -160 40 -33 92 -77 116 -97
24 -21 100 -86 169 -144 69 -59 145 -125 170 -148 26 -23 105 -90 178 -149 73
-60 149 -123 169 -142 49 -42 255 -218 318 -270 26 -22 103 -87 171 -145 176
-152 225 -193 253 -214 14 -11 55 -45 91 -76 36 -31 79 -66 95 -79 17 -12 50
-41 75 -64 44 -42 44 -42 133 -46 49 -1 93 1 99 7 6 6 -1 25 -20 53 -16 24
-38 60 -49 79 -10 19 -37 63 -61 98 -23 35 -42 66 -42 69 0 3 -13 22 -30 43
-16 21 -30 41 -30 45 0 4 -15 30 -34 58 -95 148 -146 228 -146 232 0 2 -20 33
-45 69 -25 37 -45 69 -45 72 0 3 -13 23 -30 44 -16 21 -30 41 -30 45 0 3 -20
38 -45 76 -25 38 -45 71 -45 73 0 2 -20 35 -45 73 -25 37 -45 71 -45 76 0 4
-20 36 -45 71 -25 36 -45 67 -45 70 0 3 -20 35 -45 72 -25 36 -45 67 -45 70 0
2 -21 37 -47 77 -25 39 -61 95 -78 122 -18 28 -50 77 -71 110 -22 33 -41 65
-44 70 -3 6 -23 37 -45 70 -22 33 -44 68 -50 77 -23 39 -160 259 -220 353 -35
55 -85 135 -112 178 -26 43 -59 96 -73 117 -14 21 -44 69 -68 106 -24 38 -65
103 -92 144 -27 41 -53 82 -57 90 -5 8 -39 64 -78 123 -38 59 -83 129 -100
154 -36 57 -52 63 -61 26z"/>
<path d="M506 831 c-3 -4 -75 -61 -161 -125 -85 -65 -160 -123 -167 -130 -7
-7 -38 -30 -68 -51 -91 -63 -91 -67 2 -125 40 -25 175 -114 301 -197 l230
-153 343 0 c219 0 345 4 349 10 3 6 0 12 -7 14 -25 8 -43 16 -78 37 -19 12
-73 42 -120 66 -153 81 -221 124 -229 146 -17 43 -39 133 -46 182 -6 47 -13
56 -98 139 -183 177 -234 215 -251 187z"/>
<path d="M6103 613 c-15 -5 -42 -64 -67 -148 -10 -33 -31 -94 -46 -135 -47
-132 -51 -144 -66 -195 -8 -27 -16 -57 -17 -65 -2 -13 84 -15 713 -18 393 -1
721 0 727 3 9 3 4 20 -17 57 -17 29 -38 67 -47 84 -14 28 -28 36 -117 64 -55
17 -126 38 -156 47 -30 8 -70 22 -88 29 -18 8 -42 14 -53 14 -43 0 -90 31
-165 110 -44 46 -97 100 -119 122 l-39 38 -216 -1 c-118 0 -221 -3 -227 -6z"/>
</g>
</svg>
